<svg version="1.0" xmlns="http://www.w3.org/2000/svg"
 width="234.000000pt" height="237.000000pt" viewBox="0 0 234.000000 237.000000"
 preserveAspectRatio="xMidYMid meet">

<g transform="translate(0.000000,237.000000) scale(0.100000,-0.100000)"
fill="#2563eb" stroke="none">
<path d="M876 2274 c-132 -41 -215 -158 -232 -328 -13 -142 65 -353 221 -592
30 -46 55 -93 55 -103 0 -12 -51 -65 -127 -134 -169 -151 -490 -480 -578 -590
-39 -48 -85 -113 -103 -145 -30 -52 -33 -63 -30 -124 3 -48 9 -75 24 -95 33
-45 119 -90 214 -112 l87 -21 99 25 c127 32 224 79 344 165 219 158 345 352
387 596 19 118 8 238 -31 336 -20 49 -23 65 -13 74 18 16 365 231 487 301 233
134 461 233 537 233 24 0 33 7 46 35 22 46 21 61 -4 78 -18 13 -29 13 -92 -5
-372 -104 -740 -260 -964 -410 -56 -37 -107 -68 -115 -68 -17 0 -84 101 -137
207 -78 155 -105 337 -60 410 32 51 94 93 139 93 69 0 85 -50 55 -175 -23 -94
-20 -141 10 -161 75 -49 169 42 229 219 29 86 17 126 -53 190 -107 97 -271
139 -395 101z m182 -1285 c2 -80 -1 -126 -13 -167 -58 -203 -292 -463 -510
-568 -103 -50 -216 -45 -215 9 1 28 42 99 115 197 82 109 390 427 505 520 36
29 75 68 88 87 12 18 24 33 25 33 1 0 3 -50 5 -111z"/>
</g>
</svg>
